<?xml version="1.0" encoding="UTF-8" standalone="no"?>
<!-- Created with Inkscape (http://www.inkscape.org/) -->

<svg
   xmlns:dc="http://purl.org/dc/elements/1.1/"
   xmlns:cc="http://creativecommons.org/ns#"
   xmlns:rdf="http://www.w3.org/1999/02/22-rdf-syntax-ns#"
   xmlns:svg="http://www.w3.org/2000/svg"
   xmlns="http://www.w3.org/2000/svg"
   xmlns:sodipodi="http://sodipodi.sourceforge.net/DTD/sodipodi-0.dtd"
   xmlns:inkscape="http://www.inkscape.org/namespaces/inkscape"
   width="48"
   height="48"
   id="svg2"
   version="1.1"
   inkscape:version="0.48.1 r9760"
   sodipodi:docname="76icon.svg">
  <defs
     id="defs4">
    <filter
       inkscape:collect="always"
       id="filter3978"
       color-interpolation-filters="sRGB">
      <feGaussianBlur
         inkscape:collect="always"
         stdDeviation="0.83078125"
         id="feGaussianBlur3980" />
    </filter>
  </defs>
  <sodipodi:namedview
     id="base"
     pagecolor="#ffffff"
     bordercolor="#666666"
     borderopacity="1.0"
     inkscape:pageopacity="0.0"
     inkscape:pageshadow="2"
     inkscape:zoom="7.9999999"
     inkscape:cx="31.784608"
     inkscape:cy="23.315217"
     inkscape:document-units="px"
     inkscape:current-layer="layer1"
     showgrid="false"
     inkscape:window-width="1416"
     inkscape:window-height="913"
     inkscape:window-x="339"
     inkscape:window-y="75"
     inkscape:window-maximized="0"
     fit-margin-top="5"
     fit-margin-left="5"
     fit-margin-right="5"
     fit-margin-bottom="5" />
  <metadata
     id="metadata7">
    <rdf:RDF>
      <cc:Work
         rdf:about="">
        <dc:format>image/svg+xml</dc:format>
        <dc:type
           rdf:resource="http://purl.org/dc/dcmitype/StillImage" />
        <dc:title />
      </cc:Work>
    </rdf:RDF>
  </metadata>
  <g
     inkscape:label="Layer 1"
     inkscape:groupmode="layer"
     id="layer1"
     transform="translate(-363.96875,-309.6875)">
    <rect
       style="fill:#ffffff;fill-opacity:1"
       id="rect2987"
       width="38.25"
       height="31"
       x="4.625"
       y="8.374999"
       transform="translate(363.96875,309.6875)" />
    <path
       style="fill:#434343;fill-opacity:1;filter:url(#filter3978)"
       d="m 388.71875,268.0625 c -7.202,0 -13,5.798 -13,13 l 0,48.59375 c 0,7.202 5.798,13 13,13 l 65.5625,0 c 7.202,0 13,-5.798 13,-13 l 0,-48.59375 c 0,-7.202 -5.798,-13 -13,-13 l -65.5625,0 z m 62.8125,6.53125 1.8125,3.3125 c -4.86982,2.68397 -9.21291,6.61073 -13.03125,11.8125 -3.54168,4.86983 -6.15594,10.17516 -7.84375,15.875 3.56932,-2.51787 7.48891,-3.78122 11.75,-3.78125 4.53773,3e-5 8.41892,1.60648 11.65625,4.84375 3.23727,3.20966 4.87496,7.08726 4.875,11.625 -4e-5,4.56544 -1.63773,8.48145 -4.875,11.71875 -3.23733,3.20964 -7.11852,4.8125 -11.65625,4.8125 -5.78289,0 -10.21713,-1.84766 -13.34375,-5.5 -2.96062,-3.45865 -4.46875,-8.10285 -4.46875,-13.96875 0,-7.85805 2.48111,-15.70081 7.40625,-23.53125 4.78677,-7.58133 10.69073,-13.31733 17.71875,-17.21875 z m -69.3125,1.0625 37.40625,0 -23.71875,59.03125 -4.21875,-1.75 21.1875,-52.71875 -30.65625,0 0,-4.5625 z m 62,30.71875 c -2.54559,3e-5 -5.03745,0.63707 -7.5,1.9375 -2.43491,1.27281 -4.33172,2.99449 -5.6875,5.125 -0.0553,0.71942 -0.0938,1.43687 -0.0937,2.15625 -10e-6,4.45477 1.09179,7.95802 3.25,10.53125 2.3242,2.73926 5.65949,4.125 10.03125,4.125 3.29262,0 6.11325,-1.17578 8.4375,-3.5 2.35186,-2.35188 3.53122,-5.17609 3.53125,-8.46875 -3e-5,-3.26496 -1.17939,-6.05076 -3.53125,-8.375 -2.32425,-2.35186 -5.14488,-3.53122 -8.4375,-3.53125 z"
       id="rect3903"
       inkscape:connector-curvature="0"
       transform="matrix(0.42,0,0,0.42,210.93875,205.43656)" />
    <path
       style="fill:#000000"
       d="m 371.37875,312.6875 c -3.02484,0 -5.46,2.43516 -5.46,5.46 l 0,31.08 c 0,3.02484 2.43516,5.46 5.46,5.46 l 33.18,0 c 3.02484,0 5.46,-2.43516 5.46,-5.46 l 0,-31.08 c 0,-3.02484 -2.43516,-5.46 -5.46,-5.46 l -33.18,0 z m 29.21625,8.36063 0.76125,1.39124 c -2.04532,1.12727 -3.86942,2.77651 -5.47313,4.96125 -1.4875,2.04533 -2.58549,4.27357 -3.29437,6.6675 1.49911,-1.0575 3.14534,-1.58811 4.935,-1.58812 1.90585,10e-6 3.53595,0.67472 4.89562,2.03437 1.35966,1.34806 2.04749,2.97665 2.0475,4.88251 -10e-6,1.91748 -0.68784,3.5622 -2.0475,4.92187 -1.35967,1.34805 -2.98977,2.02125 -4.89562,2.02125 -2.42881,0 -4.29119,-0.77602 -5.60438,-2.31 -1.24346,-1.45263 -1.87687,-3.4032 -1.87687,-5.86687 0,-3.30039 1.04207,-6.59435 3.11062,-9.88313 2.01045,-3.18416 4.49011,-5.59328 7.44188,-7.23187 z m -29.11125,0.44624 15.71063,0 -9.96188,24.79313 -1.77188,-0.735 8.89875,-22.14188 -12.87562,0 0,-1.91625 z m 26.04,12.90188 c -1.06915,10e-6 -2.11573,0.26757 -3.15,0.81375 -1.02266,0.53458 -1.81932,1.25769 -2.38875,2.1525 -0.0232,0.30216 -0.0394,0.60349 -0.0394,0.90562 -1e-5,1.87101 0.45855,3.34237 1.365,4.42313 0.97616,1.15049 2.37698,1.7325 4.21312,1.7325 1.3829,0 2.56757,-0.49383 3.54375,-1.47 0.98778,-0.98779 1.48311,-2.17396 1.48313,-3.55687 -2e-5,-1.37129 -0.49535,-2.54132 -1.48313,-3.51751 -0.97618,-0.98778 -2.16085,-1.48311 -3.54375,-1.48312 z"
       id="rect3003"
       inkscape:connector-curvature="0" />
  </g>
</svg>
