<?xml version="1.0" encoding="utf-8"?>
<!-- Generator: Adobe Illustrator 18.1.0, SVG Export Plug-In . SVG Version: 6.00 Build 0)  -->
<!DOCTYPE svg PUBLIC "-//W3C//DTD SVG 1.1//EN" "http://www.w3.org/Graphics/SVG/1.1/DTD/svg11.dtd">
<svg version="1.1" xmlns="http://www.w3.org/2000/svg" xmlns:xlink="http://www.w3.org/1999/xlink" x="0px" y="0px"
	 viewBox="0 0 1008.1 1008.1" enable-background="new 0 0 1008.1 1008.1" xml:space="preserve">
<g id="swatches">
</g>
<g id="final_1">
	<g>
		<path fill="#4E4540" d="M788.1,95.5l-1.4,4.1c-9.7,18-122,221.1-159.2,288.4c-8.3,15-13.4,24.3-13.6,24.7
			c-31.3,54-45.6,114.8-38.4,162.6c3.7,24.3,13.1,47.6,27.2,67.4c25.3,35.4,62.9,58.9,105.8,66.1c4.4,0.7,8.9,1.3,13.3,1.7
			c5,0.4,10,0.7,15,0.7c36.4,0,70.8-11.4,99.8-33.1c32.9-24.6,54.7-60.2,61.4-100.1c7.1-42.3-3.2-84.9-29.1-120
			c-25.8-35-63.8-58.3-107.2-65.6c-2.4-0.4-4.9-0.8-7.3-1.1c-14.9-1.9-25.8-14.5-25.5-29.8c0.2-8.1,3.6-15.5,9.6-20.9
			c6.2-5.5,14.6-8.1,22.8-7.1c3.3,0.4,6.7,0.9,10,1.5c58.7,9.9,110.2,41.5,144.9,89.1c34.9,47.8,48.8,105.9,39.1,163.6
			c-9.7,57.7-41.8,108.1-90.5,141.8c-37.7,26.1-82,39.9-128.1,39.9h0c-6.6,0-13.3-0.3-19.9-0.9c-6-0.5-12-1.3-18.1-2.3
			c-58.6-9.9-109.8-41.9-144-90.2c-6.6-9.3-12.5-19.1-17.7-29.3c-29.7-58.7-31.2-127.4-4.2-198.5c9.3-24.4,20.6-48,31.4-69.6
			L733.7,69.4l4-4.8l0.2-0.3c-13.2-7-26.7-13.5-40.6-19.4C635.9,19,570.7,5.8,503.6,5.8S371.2,19,309.9,44.9
			C250.7,70,197.4,105.9,151.7,151.6C106,197.3,70.1,250.5,45.1,309.7C19.1,371,6,436.2,6,503.4S19.1,635.7,45.1,697
			c25.1,59.2,60.9,112.5,106.6,158.2c1.7,1.7,3.4,3.4,5.1,5.1l271-502.4H138l50.9,85.7c3.8,6.1,4.9,13.3,3.2,20.3
			c-1.7,7-6,12.9-12.4,16.8c-4.4,2.7-9.5,4.2-14.6,4.2c-9.3,0-17.8-4.7-22.6-12.4L66.9,345.3c-2.7-4.3-4-9.2-4-14.2l0-1.1
			c0.4-14.4,12.3-26,26.6-26h384c6.9,0,15.3,2.5,19.5,5.8l0.4,0.3c12.4,8.8,16.3,25.7,9.1,39.1L209.3,892.8
			c-1.5,2.9-3.5,5.4-5.8,7.6c32.7,24.8,68.3,45.3,106.3,61.4c61.3,25.9,126.5,39.1,193.7,39.1s132.3-13.1,193.7-39.1
			c59.2-25.1,112.5-60.9,158.2-106.6C901.1,809.5,937,756.3,962,697c25.9-61.3,39.1-126.5,39.1-193.7S988,371,962,309.7
			c-25.1-59.2-60.9-112.5-106.6-158.2c-20.9-20.9-43.3-39.7-67.1-56.3L788.1,95.5z"/>
		<path fill="#FFFFFF" d="M156.8,860.4c14.8,14.4,30.3,27.8,46.6,40.2c0.1-0.1,0.1-0.1,0.2-0.2c-16.3-12.4-31.9-25.7-46.7-40.2
			L156.8,860.4z"/>
		<path fill="#FFFFFF" d="M502.5,349.1c7.2-13.4,3.3-30.2-9.1-39.1l-0.4-0.3c-4.2-3.3-12.6-5.8-19.5-5.8h-384
			c-14.3,0-26.2,11.7-26.6,26l0,1.1c-0.1,5,1.3,9.9,4,14.2l75.6,127.3c4.8,7.7,13.2,12.4,22.6,12.4c5.1,0,10.1-1.4,14.6-4.2
			c6.4-4,10.7-9.9,12.4-16.8c1.7-7,0.6-14.2-3.2-20.3L138,357.9h289.9l-271,502.4c14.8,14.4,30.4,27.8,46.7,40.2
			c2.3-2.2,4.2-4.7,5.8-7.6L502.5,349.1z"/>
		<path fill="#FFFFFF" d="M771.5,335c-3.3-0.6-6.7-1.1-10-1.5c-8.2-1-16.6,1.6-22.8,7.1c-6,5.4-9.5,12.8-9.6,20.9
			c-0.4,15.3,10.6,27.9,25.5,29.8c2.5,0.3,4.9,0.7,7.3,1.1c43.4,7.3,81.4,30.6,107.2,65.6c25.9,35.1,36.2,77.7,29.1,120
			c-6.7,39.9-28.5,75.4-61.4,100.1c-28.9,21.6-63.4,33.1-99.8,33.1c-5,0-10-0.2-15-0.7c-4.5-0.4-8.9-1-13.3-1.7
			c-42.9-7.2-80.5-30.7-105.8-66.1c-14.1-19.8-23.6-43.1-27.2-67.4c-7.2-47.8,7.1-108.6,38.4-162.6c0.2-0.4,5.3-9.7,13.6-24.7
			c37.2-67.3,149.6-270.4,159.2-288.4l1.4-4.1c-16.2-11.3-33-21.6-50.5-30.9l-4,4.8L564.5,378.5c-10.8,21.6-22.2,45.2-31.4,69.6
			c-27,71.1-25.5,139.8,4.2,198.5c5.1,10.2,11.1,20,17.7,29.3c34.3,48.3,85.4,80.4,144,90.2c6,1,12.1,1.8,18.1,2.3
			c6.6,0.6,13.3,0.9,19.9,0.9h0c46.1,0,90.4-13.8,128.1-39.9c48.6-33.7,80.7-84.1,90.5-141.8c9.7-57.7-4.2-115.8-39.1-163.6
			C881.7,376.5,830.2,344.8,771.5,335z"/>
	</g>
	<path fill="#FAA41A" d="M865.7,845.7H560c-17.1,0-30.9,13.8-30.9,30.9v0.6c0,17.1,13.8,30.9,30.9,30.9h234.6
		c21.7-15.6,42.2-33,61.3-52.2C859.2,852.5,862.5,849.1,865.7,845.7z"/>
</g>
<g id="new_dir_3">
</g>
<g id="new_dir_4">
</g>
</svg>
