<?xml version="1.0" encoding="UTF-8" standalone="no"?>
<svg
   xmlns:dc="http://purl.org/dc/elements/1.1/"
   xmlns:cc="http://creativecommons.org/ns#"
   xmlns:rdf="http://www.w3.org/1999/02/22-rdf-syntax-ns#"
   xmlns:svg="http://www.w3.org/2000/svg"
   xmlns="http://www.w3.org/2000/svg"
   height="48"
   width="48"
   id="svg874"
   xml:space="preserve"
   enable-background="new 0 0 1008.1 1008.1"
   viewBox="0 0 48.000001 48.000001"
   y="0px"
   x="0px"
   version="1.1"><metadata
   id="metadata880"><rdf:RDF><cc:Work
       rdf:about=""><dc:format>image/svg+xml</dc:format><dc:type
         rdf:resource="http://purl.org/dc/dcmitype/StillImage" /><dc:title></dc:title></cc:Work></rdf:RDF></metadata><defs
   id="defs878" />
<g
   transform="translate(-6.0000001,-952.9)"
   id="swatches">
</g>
<g
   transform="matrix(0.04823636,0,0,0.04823636,-0.28941816,-0.27977089)"
   id="final_1">
	<g
   id="g867">
		<path
   style="fill:#4e4540"
   id="path859"
   d="m 788.1,95.5 -1.4,4.1 c -9.7,18 -122,221.1 -159.2,288.4 -8.3,15 -13.4,24.3 -13.6,24.7 -31.3,54 -45.6,114.8 -38.4,162.6 3.7,24.3 13.1,47.6 27.2,67.4 25.3,35.4 62.9,58.9 105.8,66.1 4.4,0.7 8.9,1.3 13.3,1.7 5,0.4 10,0.7 15,0.7 36.4,0 70.8,-11.4 99.8,-33.1 32.9,-24.6 54.7,-60.2 61.4,-100.1 7.1,-42.3 -3.2,-84.9 -29.1,-120 -25.8,-35 -63.8,-58.3 -107.2,-65.6 -2.4,-0.4 -4.9,-0.8 -7.3,-1.1 -14.9,-1.9 -25.8,-14.5 -25.5,-29.8 0.2,-8.1 3.6,-15.5 9.6,-20.9 6.2,-5.5 14.6,-8.1 22.8,-7.1 3.3,0.4 6.7,0.9 10,1.5 58.7,9.9 110.2,41.5 144.9,89.1 34.9,47.8 48.8,105.9 39.1,163.6 -9.7,57.7 -41.8,108.1 -90.5,141.8 -37.7,26.1 -82,39.9 -128.1,39.9 v 0 c -6.6,0 -13.3,-0.3 -19.9,-0.9 -6,-0.5 -12,-1.3 -18.1,-2.3 -58.6,-9.9 -109.8,-41.9 -144,-90.2 -6.6,-9.3 -12.5,-19.1 -17.7,-29.3 -29.7,-58.7 -31.2,-127.4 -4.2,-198.5 9.3,-24.4 20.6,-48 31.4,-69.6 l 169.5,-309.2 4,-4.8 0.2,-0.3 C 724.7,57.3 711.2,50.8 697.3,44.9 635.9,19 570.7,5.8 503.6,5.8 436.5,5.8 371.2,19 309.9,44.9 250.7,70 197.4,105.9 151.7,151.6 106,197.3 70.1,250.5 45.1,309.7 19.1,371 6,436.2 6,503.4 6,570.6 19.1,635.7 45.1,697 c 25.1,59.2 60.9,112.5 106.6,158.2 1.7,1.7 3.4,3.4 5.1,5.1 l 271,-502.4 H 138 l 50.9,85.7 c 3.8,6.1 4.9,13.3 3.2,20.3 -1.7,7 -6,12.9 -12.4,16.8 -4.4,2.7 -9.5,4.2 -14.6,4.2 -9.3,0 -17.8,-4.7 -22.6,-12.4 L 66.9,345.3 c -2.7,-4.3 -4,-9.2 -4,-14.2 V 330 c 0.4,-14.4 12.3,-26 26.6,-26 h 384 c 6.9,0 15.3,2.5 19.5,5.8 l 0.4,0.3 c 12.4,8.8 16.3,25.7 9.1,39.1 L 209.3,892.8 c -1.5,2.9 -3.5,5.4 -5.8,7.6 32.7,24.8 68.3,45.3 106.3,61.4 61.3,25.9 126.5,39.1 193.7,39.1 67.2,0 132.3,-13.1 193.7,-39.1 C 756.4,936.7 809.7,900.9 855.4,855.2 901.1,809.5 937,756.3 962,697 987.9,635.7 1001.1,570.5 1001.1,503.3 1001.1,436.1 988,371 962,309.7 936.9,250.5 901.1,197.2 855.4,151.5 834.5,130.6 812.1,111.8 788.3,95.2 Z" />
		<path
   style="fill:#ffffff"
   id="path861"
   d="m 156.8,860.4 c 14.8,14.4 30.3,27.8 46.6,40.2 0.1,-0.1 0.1,-0.1 0.2,-0.2 -16.3,-12.4 -31.9,-25.7 -46.7,-40.2 z" />
		<path
   style="fill:#ffffff"
   id="path863"
   d="m 502.5,349.1 c 7.2,-13.4 3.3,-30.2 -9.1,-39.1 l -0.4,-0.3 c -4.2,-3.3 -12.6,-5.8 -19.5,-5.8 h -384 c -14.3,0 -26.2,11.7 -26.6,26 v 1.1 c -0.1,5 1.3,9.9 4,14.2 l 75.6,127.3 c 4.8,7.7 13.2,12.4 22.6,12.4 5.1,0 10.1,-1.4 14.6,-4.2 6.4,-4 10.7,-9.9 12.4,-16.8 1.7,-7 0.6,-14.2 -3.2,-20.3 L 138,357.9 h 289.9 l -271,502.4 c 14.8,14.4 30.4,27.8 46.7,40.2 2.3,-2.2 4.2,-4.7 5.8,-7.6 z" />
		<path
   style="fill:#ffffff"
   id="path865"
   d="m 771.5,335 c -3.3,-0.6 -6.7,-1.1 -10,-1.5 -8.2,-1 -16.6,1.6 -22.8,7.1 -6,5.4 -9.5,12.8 -9.6,20.9 -0.4,15.3 10.6,27.9 25.5,29.8 2.5,0.3 4.9,0.7 7.3,1.1 43.4,7.3 81.4,30.6 107.2,65.6 25.9,35.1 36.2,77.7 29.1,120 -6.7,39.9 -28.5,75.4 -61.4,100.1 -28.9,21.6 -63.4,33.1 -99.8,33.1 -5,0 -10,-0.2 -15,-0.7 -4.5,-0.4 -8.9,-1 -13.3,-1.7 -42.9,-7.2 -80.5,-30.7 -105.8,-66.1 -14.1,-19.8 -23.6,-43.1 -27.2,-67.4 -7.2,-47.8 7.1,-108.6 38.4,-162.6 0.2,-0.4 5.3,-9.7 13.6,-24.7 37.2,-67.3 149.6,-270.4 159.2,-288.4 l 1.4,-4.1 C 772.1,84.2 755.3,73.9 737.8,64.6 l -4,4.8 -169.3,309.1 c -10.8,21.6 -22.2,45.2 -31.4,69.6 -27,71.1 -25.5,139.8 4.2,198.5 5.1,10.2 11.1,20 17.7,29.3 34.3,48.3 85.4,80.4 144,90.2 6,1 12.1,1.8 18.1,2.3 6.6,0.6 13.3,0.9 19.9,0.9 v 0 c 46.1,0 90.4,-13.8 128.1,-39.9 48.6,-33.7 80.7,-84.1 90.5,-141.8 9.7,-57.7 -4.2,-115.8 -39.1,-163.6 -34.8,-47.5 -86.3,-79.2 -145,-89 z" />
	</g>
	<path
   style="fill:#faa41a"
   id="path869"
   d="M 865.7,845.7 H 560 c -17.1,0 -30.9,13.8 -30.9,30.9 v 0.6 c 0,17.1 13.8,30.9 30.9,30.9 h 234.6 c 21.7,-15.6 42.2,-33 61.3,-52.2 3.3,-3.4 6.6,-6.8 9.8,-10.2 z" />
</g>
<g
   transform="translate(-6.0000001,-952.9)"
   id="new_dir_3">
</g>
<g
   transform="translate(-6.0000001,-952.9)"
   id="new_dir_4">
</g>
</svg>
