<?xml version="1.0" encoding="UTF-8" standalone="no"?>
<!-- Generator: Adobe Illustrator 18.1.0, SVG Export Plug-In . SVG Version: 6.00 Build 0)  -->

<svg
   xmlns:dc="http://purl.org/dc/elements/1.1/"
   xmlns:cc="http://creativecommons.org/ns#"
   xmlns:rdf="http://www.w3.org/1999/02/22-rdf-syntax-ns#"
   xmlns:svg="http://www.w3.org/2000/svg"
   xmlns="http://www.w3.org/2000/svg"
   xmlns:sodipodi="http://sodipodi.sourceforge.net/DTD/sodipodi-0.dtd"
   xmlns:inkscape="http://www.inkscape.org/namespaces/inkscape"
   version="1.1"
   x="0px"
   y="0px"
   viewBox="0 0 48.000001 48.000001"
   enable-background="new 0 0 1008.1 1008.1"
   xml:space="preserve"
   id="svg18"
   sodipodi:docname="76icon.svg"
   width="48"
   height="48"
   inkscape:version="0.92+devel unknown"><metadata
     id="metadata24"><rdf:RDF><cc:Work
         rdf:about=""><dc:format>image/svg+xml</dc:format><dc:type
           rdf:resource="http://purl.org/dc/dcmitype/StillImage" /><dc:title></dc:title></cc:Work></rdf:RDF></metadata><defs
     id="defs22" /><sodipodi:namedview
     pagecolor="#777777"
     bordercolor="#666666"
     inkscape:document-rotation="0"
     borderopacity="1"
     objecttolerance="10"
     gridtolerance="10"
     guidetolerance="10"
     inkscape:pageopacity="0"
     inkscape:pageshadow="2"
     inkscape:window-width="640"
     inkscape:window-height="480"
     id="namedview20"
     showgrid="true"
     inkscape:snap-bbox="true"
     inkscape:bbox-paths="false"
     inkscape:bbox-nodes="true"
     inkscape:zoom="7.2948226"
     inkscape:cx="17.267258"
     inkscape:cy="30.728621"
     inkscape:current-layer="g11"><inkscape:grid
       type="xygrid"
       id="grid4281" /></sodipodi:namedview><g
     id="swatches"
     transform="translate(0,-960.09998)" /><g
     id="final_1"
     transform="matrix(0.04622651,0,0,0.04622651,0.72264094,0.73188624)"
     style="stroke-width:21.63260651"><g
       id="g11"
       style="stroke-width:21.63260651"><path
         fill="#FFFFFF"
         d="m 156.8,860.4 c 14.8,14.4 30.3,27.8 46.6,40.2 0.1,-0.1 0.1,-0.1 0.2,-0.2 -16.3,-12.4 -31.9,-25.7 -46.7,-40.2 z"
         id="path5"
         inkscape:connector-curvature="0"
         style="stroke-width:21.63260651" /><g
         id="g4319"
         transform="translate(-525.63806,594.275)"><path
           d="m 1054.4081,-127.54949 c -30.4347,80.185406 -28.7963,157.568134 4.7415,223.784832 5.7841,11.446548 12.4867,22.552998 19.9092,33.018978 38.602,54.47549 96.2692,90.60298 162.3766,101.71862 6.7771,1.14416 13.6038,2.02369 20.3561,2.62022 7.3977,0.65537 14.9443,0.98702 22.4413,0.98702 h 0.025 c 52.0072,0 101.9539,-15.56368 144.4286,-45.00968 54.8123,-38.01639 91.0312,-94.794834 101.9787,-159.864643 10.9476,-65.074774 -4.6918,-130.579007 -44.0385,-184.445557 -39.1978,-53.61333 -97.2373,-89.27115 -163.3944,-100.40739 -3.7734,-0.63054 -7.5715,-1.18661 -11.3448,-1.65331 -9.2099,-1.1022 -18.7425,1.84943 -25.6685,8.05057 -6.8019,6.07454 -10.6497,14.43293 -10.8731,23.53853 -0.422,17.25795 11.9406,31.50221 28.7219,33.58994 2.7803,0.34506 5.5607,0.75218 8.2665,1.20647 48.8793,8.2293 91.8008,34.48362 120.8206,73.93461 29.1687,39.590013 40.7865,87.635224 32.7682,135.28821 -7.5466,44.981876 -32.1725,85.04603 -69.2602,112.81713 -32.5945,24.39745 -71.4695,37.2935 -112.4547,37.2935 -5.6103,0 -11.2951,-0.24924 -16.8806,-0.74697 -5.0145,-0.44436 -10.0787,-1.09476 -15.0188,-1.93631 -48.358,-8.13 -90.7333,-34.60029 -119.2814,-74.520467 -15.9621,-22.304755 -26.5869,-48.586384 -30.7326,-75.990078 -8.1424,-53.908743 8.0183,-122.429145 43.269,-183.293695 0.2482,-0.45677 6.0075,-10.89297 15.3911,-27.83068 41.9285,-75.83368 168.6076,-304.87385 179.5055,-325.13307 l 3.2272,-9.75849 c 4.9649,-14.96665 -1.4398,-31.3607 -15.2422,-38.98429 l -0.7199,-0.38726 c -4.8408,-2.67359 -10.3022,-4.08362 -15.8132,-4.08362 -9.8056,0 -19.0155,4.3269 -25.2713,11.88346 l -6.082,7.37286 -190.7261,348.45314 c -12.164,24.38256 -24.9982,50.98691 -35.4245,78.48742"
           style="fill:#ffffff;fill-opacity:1;fill-rule:nonzero;stroke:none;stroke-width:6.03215504"
           id="path26"
           inkscape:connector-curvature="0" /><path
           d="m 642.17358,387.34156 0.86885,0.47539 c 4.96489,2.67036 10.57521,4.07942 16.16071,4.07942 h 0.0248 c 12.63563,0 24.22864,-6.91685 30.21133,-18.05682 l 330.53743,-613.04439 c 8.1424,-15.14042 3.7236,-34.08643 -10.2774,-44.06089 l -0.4468,-0.34257 c -4.7663,-3.76835 -14.17478,-6.53628 -21.99448,-6.53628 h -432.8885 c -16.11106,0 -29.59072,13.16937 -30.03756,29.3549 l -0.0248,1.23874 c -0.0745,5.61032 1.46464,11.17348 4.4684,16.01921 l 85.27193,143.49019 c 5.36208,8.673662 14.91949,13.93396 25.44505,13.93396 5.73444,0 11.41924,-1.63593 16.40895,-4.731537 7.17426,-4.458469 12.06468,-11.138723 14.00098,-18.975803 1.96113,-7.91154 0.69509,-16.04155 -3.57472,-22.90054 l -57.36926,-96.6167 H 935.77217 L 628.1726,340.95487 c -4.31945,8.05255 -5.23796,17.31802 -2.60657,26.08502 2.63139,8.76129 8.53961,15.97304 16.60755,20.30167"
           style="fill:#ffffff;fill-opacity:1;fill-rule:nonzero;stroke:none;stroke-width:6.03215504"
           id="path28"
           inkscape:connector-curvature="0" /><path
           d="m 1482.5552,391.00515 h -397.7868 c -19.2141,0 -34.8038,-15.58304 -34.8038,-34.80758 v -0.70203 c 0,-19.2243 15.5897,-34.80659 34.8038,-34.80659 h 397.7868 c 19.2389,0 34.8287,15.58229 34.8287,34.80659 v 0.70203 c 0,19.22454 -15.5898,34.80758 -34.8287,34.80758"
           style="fill:#f89a0f;fill-opacity:1;fill-rule:nonzero;stroke:none;stroke-width:6.03215504"
           id="path30"
           inkscape:connector-curvature="0" /></g></g></g><g
     id="new_dir_3"
     transform="translate(0,-960.09998)" /><g
     id="new_dir_4"
     transform="translate(0,-960.09998)" /></svg>