<?xml version="1.0" encoding="UTF-8" standalone="no"?>
<!-- Generator: Adobe Illustrator 18.1.0, SVG Export Plug-In . SVG Version: 6.00 Build 0)  -->

<svg
   xmlns:dc="http://purl.org/dc/elements/1.1/"
   xmlns:cc="http://creativecommons.org/ns#"
   xmlns:rdf="http://www.w3.org/1999/02/22-rdf-syntax-ns#"
   xmlns:svg="http://www.w3.org/2000/svg"
   xmlns="http://www.w3.org/2000/svg"
   xmlns:sodipodi="http://sodipodi.sourceforge.net/DTD/sodipodi-0.dtd"
   xmlns:inkscape="http://www.inkscape.org/namespaces/inkscape"
   version="1.1"
   x="0px"
   y="0px"
   viewBox="0 0 217 74.999999"
   enable-background="new 0 0 3067.8 855.2"
   xml:space="preserve"
   id="svg30"
   sodipodi:docname="system76_logo_primary.svg"
   width="217"
   height="75"
   inkscape:version="0.92+devel unknown"><metadata
     id="metadata36"><rdf:RDF><cc:Work
         rdf:about=""><dc:format>image/svg+xml</dc:format><dc:type
           rdf:resource="http://purl.org/dc/dcmitype/StillImage" /><dc:title></dc:title></cc:Work></rdf:RDF></metadata><defs
     id="defs34" /><sodipodi:namedview
     pagecolor="#ffffff"
     bordercolor="#666666"
     inkscape:document-rotation="0"
     borderopacity="1"
     objecttolerance="10"
     gridtolerance="10"
     guidetolerance="10"
     inkscape:pageopacity="0"
     inkscape:pageshadow="2"
     inkscape:window-width="640"
     inkscape:window-height="480"
     id="namedview32"
     showgrid="false"
     inkscape:zoom="3.3900514"
     inkscape:cx="88.796984"
     inkscape:cy="43.281994"
     inkscape:current-layer="svg30" /><g
     id="swatches"
     transform="translate(0,-780.20001)" /><g
     id="final_1"
     transform="matrix(0.06639625,0,0,0.06639625,6.6496145,9.1089635)"
     style="stroke-width:15.06109047"><g
       id="g15"
       style="stroke-width:15.06109047"><path
         fill="#554741"
         d="m 243.7,484.4 c -23.9,-13 -54.8,-18.3 -79.6,-22.7 l -10.5,-1.8 C 127.5,455.6 102.8,451.5 84.5,443.1 64.4,433.9 55.1,420.9 55.1,402 c 0,-48.3 51.7,-58.4 95.1,-58.4 29.4,0 58.5,6.4 84,18.4 1,0.5 1.6,1.5 1.6,2.7 V 402 c 0,8.2 6.7,14.9 15,14.9 8.1,0 14.6,-6.3 14.9,-14.4 l 1.5,-48.4 c 0.2,-5.6 -2.9,-11 -7.8,-13.6 -33.2,-17.8 -69.8,-27.1 -105.9,-27.1 h -3.2 c -80.9,0 -127.2,32.3 -127.2,88.7 0,69 76,80.8 126.4,88.6 33.4,4.9 57.6,9.8 75.5,18.6 20,9.9 29.3,24 29.3,44.3 0,60.4 -85,63.5 -102,63.5 -31.2,0 -69,-9.9 -98.7,-25.8 -0.9,-0.5 -1.4,-1.5 -1.4,-2.6 v -38.9 c 0,-8.9 -7.6,-15.7 -17,-14.8 -7.6,0.7 -13.3,7.4 -13.3,15.1 v 50.5 c 0,5.5 3,10.6 7.9,13.2 40.6,21.7 72,33.5 121.2,33.5 16.7,0 49,-1.8 78,-14 36.9,-15.5 55.8,-42.1 56.2,-79.1 0.3,-31.6 -13.2,-54.4 -41.5,-69.8 z"
         id="path3"
         inkscape:connector-curvature="0"
         style="stroke-width:15.06109047" /><path
         fill="#554741"
         d="M 671.7,319.6 H 567.8 c -8.6,0 -15.5,7.3 -15,16.1 0.4,7.8 7.7,14.1 15.5,14.1 h 31.5 c 0.7,0 1.4,0.2 1.9,0.7 1,0.9 1.3,2.2 0.8,3.3 l -67,164.7 -28.5,73.7 c -0.7,1.7 -2.3,1.9 -2.7,1.9 -1.3,0 -2.2,-0.7 -2.7,-1.8 L 472.7,520.3 401.6,354 c -0.4,-0.9 -0.3,-1.9 0.3,-2.8 0.6,-0.8 1.4,-1.3 2.4,-1.3 h 32.4 c 8.6,0 15.5,-7.3 15,-16.1 -0.4,-7.8 -7.7,-14.1 -15.5,-14.1 h -107 c -8.6,0 -15.5,7.3 -15,16.1 0.4,7.8 7.7,14.1 15.5,14.1 h 35.1 c 1.2,0 2.2,0.7 2.7,1.8 l 120.6,280.9 c 0.3,0.7 0.3,1.6 0,2.3 l -42,97.5 c -10.4,23.3 -25.4,35.6 -43.4,35.6 -10.9,0 -22.8,-4.3 -35.3,-12.7 -2.3,-1.6 -5.1,-2.4 -8.1,-2.4 -5.1,0 -9.9,2.5 -12.6,6.6 l -0.9,1.4 c -2.2,3.4 -2.9,7.4 -2.1,11.3 0.9,3.9 3.2,7.2 6.5,9.4 17.6,11.5 35.2,17.3 52.1,17.3 32.2,0 58.8,-20.7 73,-56.8 L 638.5,351.6 c 0.5,-1.1 1.5,-1.8 2.7,-1.8 h 31.1 c 8.6,0 15.5,-7.3 15,-16.1 -0.6,-7.7 -7.8,-14.1 -15.6,-14.1 z"
         id="path5"
         inkscape:connector-curvature="0"
         style="stroke-width:15.06109047" /><path
         fill="#554741"
         d="m 932.6,484.4 c -23.9,-13 -54.8,-18.3 -79.6,-22.7 l -10.5,-1.8 C 816.4,455.6 791.7,451.5 773.4,443.1 753.3,433.9 744,420.9 744,402 c 0,-48.3 51.7,-58.4 95.1,-58.4 29.5,0 58.5,6.4 84,18.4 1,0.5 1.6,1.5 1.6,2.7 V 402 c 0,8.8 7.8,15.9 17,14.7 6.9,-0.9 12.7,-7.8 12.9,-14.8 L 956,354 c 0.2,-5.6 -2.9,-11 -7.8,-13.6 C 915,322.6 878.4,313.3 842.3,313.3 h -3.2 c -80.9,0 -127.2,32.3 -127.2,88.7 0,69 76,80.8 126.4,88.6 33.4,4.9 57.6,9.8 75.5,18.6 20,9.9 29.3,24 29.3,44.3 0,60.4 -85,63.5 -102,63.5 -31.2,0 -69,-9.9 -98.7,-25.8 -0.9,-0.5 -1.4,-1.5 -1.4,-2.6 v -38.9 c 0,-8.9 -7.6,-15.7 -17,-14.8 -7.6,0.7 -13.3,7.4 -13.3,15.1 v 50.5 c 0,5.5 3,10.6 7.9,13.2 40.6,21.7 72,33.5 121.2,33.5 16.7,0 49,-1.8 78,-14 36.9,-15.5 55.8,-42.1 56.2,-79.1 0.4,-31.5 -13.1,-54.3 -41.4,-69.7 z"
         id="path7"
         inkscape:connector-curvature="0"
         style="stroke-width:15.06109047" /><path
         fill="#554741"
         d="m 1212.9,604.7 c -2,0 -3.9,0.4 -5.7,1.2 -16.6,7.2 -34.8,11.8 -46.4,11.8 -47.3,0 -55.9,-24.8 -55.9,-73.6 V 347.5 c 0.1,-0.1 0.1,-0.1 0.1,-0.1 h 96.9 c 8.4,0 15.2,-7.5 14,-16.3 -0.9,-6.7 -7.7,-12.1 -14.4,-12.1 H 1105 c -0.1,-0.1 -0.1,-0.1 -0.1,-0.1 v -83.1 c 0,-6.7 -5.4,-12.1 -12,-12.1 -0.4,0 -0.9,0 -1.3,0.1 l -6.7,0.7 c -6.2,0.6 -10.9,5.8 -10.9,12 v 82.4 c -0.1,0.1 -0.1,0.1 -0.1,0.1 h -54 c -8.4,0 -15.2,7.5 -14,16.3 0.9,6.7 7.7,12.1 14.4,12.1 h 53.5 c 0.1,0.1 0.1,0.1 0.1,0.1 v 196.6 c 0,22.2 1.7,50.3 15,70.9 13.8,21.4 37.7,32 73.1,32.3 v 0 c 16.3,0 37.6,-5.2 56.9,-14 2.9,-1.3 5.4,-3.4 6.9,-6.1 2.7,-4.6 2.7,-10 0.3,-14.6 -2.4,-4.8 -7.6,-7.9 -13.2,-7.9 z m -50.8,40 z"
         id="path9"
         inkscape:connector-curvature="0"
         style="stroke-width:15.06109047" /><path
         fill="#554741"
         d="m 1407.5,315.2 c -93.1,0 -160.7,70 -160.7,166.4 0,112.6 83.6,163.9 161.3,163.9 53.1,0 104.3,-21.4 133.7,-55.8 2.7,-3.2 4,-7.3 3.5,-11.5 -0.5,-4.2 -2.7,-7.9 -6.3,-10.5 -2.5,-1.8 -5.4,-2.8 -8.6,-2.8 -4.4,0 -8.5,1.8 -11.2,5 -23.5,27.1 -68.1,45.3 -111.1,45.3 -89,0 -125.9,-67.5 -130.4,-125.2 -0.1,-1.9 -0.3,-7.6 -0.3,-9.6 0,-1.7 0.3,-7.1 0.3,-7.2 5.2,-77.5 56.1,-127.7 129.8,-127.7 41.3,0 73.9,10.4 96.8,30.9 22.9,20.5 34.8,49.8 35.5,87.2 0,0.9 -0.3,1.7 -0.9,2.3 -0.6,0.6 -1.3,0.9 -2.1,0.9 h -205.7 c -8.4,0 -15.2,7.2 -14.7,15.8 0.4,7.6 7.6,13.9 15.2,13.9 h 222.9 c 7.8,0 14.4,-6.1 14.8,-13.8 3.2,-49.5 -9.2,-89.6 -37,-119.2 -28.9,-31.2 -73.3,-48.3 -124.8,-48.3 z"
         id="path11"
         inkscape:connector-curvature="0"
         style="stroke-width:15.06109047" /><path
         fill="#554741"
         d="m 2056.7,317.9 c -12.5,-3.1 -25.3,-4.6 -38,-4.6 -53.7,0 -98.4,27.2 -119.6,72.9 -19.2,-45.3 -64.8,-72.3 -122.3,-72.3 -43.9,0 -79.8,17.2 -101.2,48.5 v -31 c 0,-6.5 -5.3,-11.8 -11.8,-11.8 h -64.9 c -9.1,0 -16.3,8.1 -15.1,17.5 1,7.2 8.3,13.1 15.5,13.1 h 44.3 v 284.4 c 0,6.5 5.3,11.8 11.8,11.8 h 8.4 c 6.5,0 11.8,-5.3 11.8,-11.8 V 450.2 c 0,-60.7 40.7,-103.2 101.2,-105.7 62.9,0 106.9,43.5 106.9,105.7 v 181.1 c 0,9.1 8.1,16.3 17.5,15.1 7.2,-1 13.1,-8.3 13.1,-15.5 V 450.2 c 0,-62.6 42.9,-106.3 104.4,-106.3 62.8,0 105,41.7 105,103.7 v 187.1 c 0,6.5 5.3,11.8 11.8,11.8 h 8.4 c 6.5,0 11.8,-5.3 11.8,-11.8 V 446.1 c -0.1,-65.1 -37.1,-113.1 -99,-128.2 z"
         id="path13"
         inkscape:connector-curvature="0"
         style="stroke-width:15.06109047" /></g><g
       id="g21"
       style="stroke-width:15.06109047"><path
         fill="#554741"
         d="m 2642,396.7 c -25.6,67.6 -24.3,132.7 4,188.5 4.9,9.6 10.5,19 16.8,27.8 32.5,45.9 81.1,76.3 136.8,85.7 5.7,1 11.5,1.7 17.1,2.2 6.2,0.6 12.6,0.8 18.9,0.8 v 0 c 43.8,0 85.9,-13.1 121.7,-37.9 46.2,-32 76.7,-79.9 85.9,-134.7 9.2,-54.8 -4,-110 -37.1,-155.4 -33,-45.2 -81.9,-75.2 -137.7,-84.6 -3.2,-0.5 -6.4,-1 -9.5,-1.4 -7.8,-0.9 -15.8,1.6 -21.6,6.8 -5.7,5.1 -9,12.2 -9.2,19.8 -0.4,14.5 10.1,26.5 24.2,28.3 2.3,0.3 4.7,0.6 7,1 41.2,6.9 77.3,29.1 101.8,62.3 24.6,33.4 34.4,73.8 27.6,114 -6.4,37.9 -27.1,71.6 -58.4,95 -27.5,20.6 -60.2,31.4 -94.7,31.4 -4.7,0 -9.5,-0.2 -14.2,-0.6 -4.2,-0.4 -8.5,-0.9 -12.7,-1.6 -40.7,-6.9 -76.4,-29.2 -100.5,-62.8 -13.4,-18.8 -22.4,-40.9 -25.9,-64 -6.9,-45.4 6.8,-103.1 36.5,-154.4 0.2,-0.4 5.1,-9.2 13,-23.4 35.3,-63.9 142,-256.8 151.2,-273.9 l 2.7,-8.2 c 4.2,-12.6 -1.2,-26.4 -12.9,-32.8 l -0.6,-0.3 c -4.1,-2.3 -8.7,-3.4 -13.3,-3.4 -8.3,0 -16,3.6 -21.3,10 l -5.1,6.2 -160.7,293.6 c -10.2,20.5 -21,42.9 -29.8,66 z"
         id="path17"
         inkscape:connector-curvature="0"
         style="stroke-width:15.06109047" /><path
         fill="#554741"
         d="m 2294.8,830.5 0.7,0.4 c 4.2,2.3 8.9,3.4 13.6,3.4 v 0 c 10.7,0 20.4,-5.8 25.5,-15.2 L 2613,302.7 c 6.9,-12.8 3.1,-28.7 -8.6,-37.1 l -0.4,-0.3 c -4,-3.2 -11.9,-5.5 -18.5,-5.5 h -364.7 c -13.6,0 -24.9,11.1 -25.3,24.7 v 1 c -0.1,4.7 1.2,9.4 3.8,13.5 l 71.8,120.9 c 4.5,7.3 12.6,11.7 21.4,11.7 4.8,0 9.6,-1.4 13.8,-4 6,-3.8 10.2,-9.4 11.8,-16 1.7,-6.7 0.6,-13.5 -3,-19.3 l -48.3,-81.4 h 275.3 L 2283,791.4 c -3.6,6.8 -4.4,14.6 -2.2,22 2.2,7.4 7.2,13.5 14,17.1 z"
         id="path19"
         inkscape:connector-curvature="0"
         style="stroke-width:15.06109047" /></g><g
       id="g25"
       style="stroke-width:15.06109047"><path
         fill="#FAA41A"
         d="m 3002.8,833.6 h -335.1 c -16.2,0 -29.3,-13.1 -29.3,-29.3 v -0.6 c 0,-16.2 13.1,-29.3 29.3,-29.3 h 335.1 c 16.2,0 29.3,13.1 29.3,29.3 v 0.6 c 0,16.2 -13.1,29.3 -29.3,29.3 z"
         id="path23"
         inkscape:connector-curvature="0"
         style="stroke-width:15.06109047" /></g></g><g
     id="new_dir_3"
     transform="translate(0,-780.20001)" /><g
     id="new_dir_4"
     transform="translate(0,-780.20001)" /></svg>