<?xml version="1.0" encoding="UTF-8" standalone="no"?>
<!-- Created with Inkscape (http://www.inkscape.org/) -->

<svg
   xmlns:dc="http://purl.org/dc/elements/1.1/"
   xmlns:cc="http://creativecommons.org/ns#"
   xmlns:rdf="http://www.w3.org/1999/02/22-rdf-syntax-ns#"
   xmlns:svg="http://www.w3.org/2000/svg"
   xmlns="http://www.w3.org/2000/svg"
   xmlns:sodipodi="http://sodipodi.sourceforge.net/DTD/sodipodi-0.dtd"
   xmlns:inkscape="http://www.inkscape.org/namespaces/inkscape"
   version="1.1"
   id="svg2"
   xml:space="preserve"
   width="215"
   height="70"
   viewBox="0 0 215 69.999999"
   sodipodi:docname="system76_logo_white.svg"
   inkscape:version="0.92+devel unknown"><metadata
     id="metadata8"><rdf:RDF><cc:Work
         rdf:about=""><dc:format>image/svg+xml</dc:format><dc:type
           rdf:resource="http://purl.org/dc/dcmitype/StillImage" /><dc:title /></cc:Work></rdf:RDF></metadata><defs
     id="defs6" /><sodipodi:namedview
     pagecolor="#7a7a7a"
     bordercolor="#666666"
     inkscape:document-rotation="0"
     borderopacity="1"
     objecttolerance="10"
     gridtolerance="10"
     guidetolerance="10"
     inkscape:pageopacity="0"
     inkscape:pageshadow="2"
     inkscape:window-width="640"
     inkscape:window-height="480"
     id="namedview4"
     showgrid="false"
     inkscape:zoom="3.595669"
     inkscape:cx="93.697632"
     inkscape:cy="18.585502"
     inkscape:current-layer="g10"
     inkscape:snap-page="true"
     inkscape:snap-bbox="true"
     inkscape:bbox-nodes="true" /><g
     id="g10"
     inkscape:groupmode="layer"
     inkscape:label="ink_ext_XXXXXX"
     transform="matrix(1.3333333,0,0,-1.3333333,0,69.999973)"><g
       id="g12"
       transform="matrix(0.0086066,0,0,0.0086066,17.499296,8.6527979)"
       style="stroke-width:24.29926491"><path
         d="m 1165.22,1773.09 c -114.16,61.94 -261.818,87.68 -380.443,108.36 l -50.023,8.82 c -124.805,20.57 -242.703,39.98 -330.649,80.25 -95.925,43.93 -140.601,106.37 -140.601,196.5 0,230.93 247.176,279.4 454.531,279.4 140.797,0 279.668,-30.47 401.625,-88.11 4.63,-2.19 7.62,-7.19 7.62,-12.74 v -178.33 c 0,-39.2 32.27,-71.08 71.93,-71.08 38.64,0 69.84,30.27 71.06,68.93 l 6.98,231.41 c 0.83,26.97 -13.83,52.51 -37.35,65.07 -158.86,84.88 -333.99,129.75 -506.537,129.75 l -15.328,-0.13 c -386.621,0 -608.359,-154.6 -608.359,-424.17 0,-329.7 363.512,-386.34 604.176,-423.85 159.523,-23.56 275.546,-46.67 360.898,-88.97 95.57,-47.38 140.1,-114.7 140.1,-211.86 0,-288.93 -406.303,-303.56 -487.752,-303.56 -149.285,0 -330.071,47.25 -471.809,123.32 -4.258,2.28 -6.902,6.97 -6.902,12.21 v 185.85 c 0,42.33 -36.391,74.94 -81.246,70.81 -36.434,-3.35 -63.516,-35.48 -63.516,-72.06 v -241.7 c 0,-26.34 14.473,-50.46 37.781,-62.95 194.239,-103.92 344.145,-160.233 579.637,-160.233 79.754,0 234.242,8.673 372.947,66.723 176.63,73.92 267.01,201.16 268.63,378.07 2.68,151.39 -61.88,260.72 -197.4,334.27"
         style="fill:#ffffff;fill-opacity:1;fill-rule:nonzero;stroke:none;stroke-width:24.29926491"
         id="path14"
         inkscape:connector-curvature="0" /><path
         d="m 3211.6,2560.98 h -496.67 c -41.06,0 -74.21,-35.03 -71.81,-77.12 2.12,-37.3 36.93,-67.63 74.29,-67.63 h 150.61 c 3.36,0 6.75,-1.02 9.18,-3.34 4.68,-4.48 5.98,-10.35 3.74,-15.89 l -320.59,-787.33 -136.15,-352.2 c -3.18,-8.27 -10.77,-8.92 -13.01,-8.92 -6.09,0 -10.69,3.11 -12.95,8.78 l -138.18,344.21 -340.01,795.25 c -1.91,4.44 -1.48,9.11 1.22,13.2 2.64,4.02 6.77,6.24 11.63,6.24 h 154.9 c 41.05,0 74.17,35.03 71.77,77.12 -2.11,37.3 -36.92,67.63 -74.28,67.63 h -511.75 c -41.05,0 -74.18,-35.03 -71.78,-77.12 2.12,-37.3 36.92,-67.63 74.28,-67.63 h 167.69 c 5.58,0 10.64,-3.34 12.86,-8.46 l 576.55,-1343.36 c 1.5,-3.5 1.49,-7.53 -0.01,-11.03 l -201,-466.013 c -49.67,-111.414 -121.36,-170.304 -207.29,-170.304 -52.08,0 -108.93,20.417 -168.96,60.687 -11.2,7.512 -24.53,11.484 -38.56,11.484 -24.43,0 -47.5,-12.14 -60.18,-31.625 l -4.44,-6.742 c -10.47,-16.027 -13.99,-35.211 -9.9,-54.035 4.06,-18.586 15.08,-34.57 31.04,-45 84.31,-55.019 168.14,-82.914 249.19,-82.914 153.75,0.016 281.06,99.105 349.2,271.629 l 780.2,1867.103 c 2.18,5.22 7.24,8.58 12.89,8.58 h 148.76 c 41.06,0 74.2,35.03 71.8,77.12 -2.12,37.3 -36.92,67.63 -74.28,67.63"
         style="fill:#ffffff;fill-opacity:1;fill-rule:nonzero;stroke:none;stroke-width:24.29926491"
         id="path16"
         inkscape:connector-curvature="0" /><path
         d="m 4459.12,1773.09 c -114.16,61.95 -261.83,87.69 -380.48,108.37 l -50,8.81 c -124.79,20.57 -242.68,39.98 -330.62,80.25 -95.92,43.93 -140.59,106.37 -140.59,196.5 0,230.93 247.16,279.4 454.5,279.4 140.83,0 279.71,-30.47 401.63,-88.11 4.62,-2.19 7.62,-7.19 7.62,-12.74 v -178.33 c 0,-42.23 37.45,-75.97 81.25,-70.5 33.17,4.14 60.79,37.21 61.8,70.62 l 6.95,229.21 c 0.75,26.97 -13.92,52.47 -37.38,65 -158.87,84.88 -333.99,129.75 -506.54,129.75 l -15.33,-0.13 c -386.62,0 -608.36,-154.6 -608.36,-424.17 0,-329.7 363.53,-386.34 604.18,-423.85 159.53,-23.56 275.55,-46.67 360.89,-88.97 95.59,-47.38 140.11,-114.7 140.11,-211.86 0,-288.93 -406.3,-303.56 -487.75,-303.56 -149.28,0 -330.07,47.25 -471.8,123.31 -4.24,2.29 -6.88,6.97 -6.88,12.22 v 185.85 c 0,42.33 -36.39,74.94 -81.25,70.81 -36.43,-3.35 -63.52,-35.48 -63.52,-72.06 v -241.7 c 0,-26.37 14.47,-50.49 37.75,-62.95 194.24,-103.92 344.15,-160.233 579.65,-160.233 79.75,0 234.25,8.673 372.95,66.723 176.64,73.92 267.01,201.16 268.61,378.07 2.71,151.39 -61.86,260.73 -197.39,334.27"
         style="fill:#ffffff;fill-opacity:1;fill-rule:nonzero;stroke:none;stroke-width:24.29926491"
         id="path18"
         inkscape:connector-curvature="0" /><path
         d="m 5556.67,1006.73 z m 243.14,191.26 c -9.56,0 -18.79,-1.9 -27.44,-5.63 -79.57,-34.4 -166.64,-56.61 -221.73,-56.61 -225.98,0 -267.29,118.5 -267.29,351.89 v 940 c 0.24,0.26 0.38,0.4 0.62,0.65 h 463.34 c 40.31,0 72.44,35.94 66.8,77.79 -4.3,32.05 -36.58,57.92 -68.95,57.92 h -461.19 c -0.24,0.25 -0.38,0.39 -0.62,0.64 v 397.43 c 0,31.92 -25.77,57.88 -57.47,57.88 -2.06,0 -4.11,-0.11 -6.17,-0.32 l -32.08,-3.22 c -29.6,-2.95 -52.08,-27.84 -52.08,-57.55 v -394.22 c -0.28,-0.25 -0.43,-0.39 -0.67,-0.64 h -258.01 c -40.31,0 -72.44,-35.94 -66.8,-77.79 4.3,-32.05 36.58,-57.92 68.95,-57.92 h 255.86 c 0.24,-0.25 0.39,-0.39 0.67,-0.65 v -940 c 0,-106.05 8.13,-240.43 71.58,-338.95 65.99,-102.46 180.22,-153.049 349.4,-154.659 h 0.14 c 77.89,0 179.55,24.929 272.22,66.729 13.72,6.18 25.63,16.16 33.18,29.17 12.72,22 13.01,47.68 1.34,69.94 -12,23.16 -37.01,38.12 -63.6,38.12"
         style="fill:#ffffff;fill-opacity:1;fill-rule:nonzero;stroke:none;stroke-width:24.29926491"
         id="path20"
         inkscape:connector-curvature="0" /><path
         d="m 6730.08,2582.13 c -445.27,0 -768.41,-334.58 -768.41,-795.56 0,-538.32 399.89,-783.49 771.42,-783.49 253.95,0 498.96,102.17 639.35,266.63 12.91,15.11 19.03,35.1 16.83,54.88 -2.34,20.17 -12.77,37.6 -30.12,50.43 -11.77,8.68 -26.01,13.27 -41.22,13.27 -20.94,0 -40.55,-8.72 -53.75,-23.92 -112.27,-129.51 -325.72,-216.53 -531.09,-216.53 -425.37,0 -601.86,322.85 -623.71,598.89 -0.39,8.91 -1.49,36.31 -1.49,45.87 0,8.34 1.53,34.18 1.53,34.34 24.68,370.81 268.3,610.42 620.66,610.42 197.48,0 353.26,-49.75 462.96,-147.88 109.35,-97.81 166.54,-238.15 169.93,-417.13 0.1,-4.08 -1.43,-7.91 -4.2,-10.77 -2.68,-2.71 -6.08,-4.14 -9.81,-4.14 h -983.43 c -40.22,0 -72.64,-34.3 -70.29,-75.52 2.05,-36.53 36.15,-66.22 72.72,-66.22 h 1065.68 c 37.45,0 68.62,28.95 71.01,65.9 15.45,236.62 -44.04,428.42 -176.73,570.08 -139.19,148.61 -351.49,230.45 -597.84,230.45"
         style="fill:#ffffff;fill-opacity:1;fill-rule:nonzero;stroke:none;stroke-width:24.29926491"
         id="path22"
         inkscape:connector-curvature="0" /><path
         d="m 9834.4,2569.15 c -59.82,14.62 -120.93,22.04 -181.61,22.04 -256.77,0 -470.32,-130.28 -572.02,-348.69 -91.76,216.52 -309.99,345.64 -584.75,345.64 -209.72,0 -381.43,-82.34 -484.09,-232 v 148.29 c 0,31.05 -25.15,56.22 -56.23,56.22 h -310.13 c -43.42,0 -78.09,-38.74 -72.02,-83.85 4.69,-34.56 39.5,-62.45 74.36,-62.45 h 211.82 V 1054.38 c 0,-31.05 25.2,-56.224 56.23,-56.224 h 40.03 c 31.03,0 56.18,25.164 56.18,56.204 v 882.24 c 0,290.38 194.57,493.37 484.14,505.21 300.91,-0.13 511.06,-207.85 511.06,-505.21 v -865.72 c 0,-43.44 38.73,-78.11 83.87,-72.028 34.57,4.658 62.45,39.468 62.45,74.338 v 863.41 c 0,299.26 205.22,508.26 499.1,508.26 300.34,0 502.11,-199.36 502.11,-496.07 v -894.41 c 0,-31.05 25.2,-56.224 56.2,-56.224 h 40 c 31.1,0 56.3,25.174 56.3,56.224 v 901.63 c 0,311.54 -176.8,540.76 -473,613.14"
         style="fill:#ffffff;fill-opacity:1;fill-rule:nonzero;stroke:none;stroke-width:24.29926491"
         id="path24"
         inkscape:connector-curvature="0" /><path
         d="m 12633.3,2192.15 c -122.6,-323.01 -116,-634.73 19.1,-901.47 23.3,-46.11 50.3,-90.85 80.2,-133.01 155.5,-219.443 387.8,-364.975 654.1,-409.752 27.3,-4.609 54.8,-8.152 82,-10.555 29.8,-2.64 60.2,-3.976 90.4,-3.976 h 0.1 c 209.5,0 410.7,62.695 581.8,181.312 220.8,153.141 366.7,381.861 410.8,643.981 44.1,262.14 -18.9,526.01 -177.4,743 -157.9,215.97 -391.7,359.61 -658.2,404.47 -15.2,2.54 -30.5,4.78 -45.7,6.66 -37.1,4.44 -75.5,-7.45 -103.4,-32.43 -27.4,-24.47 -42.9,-58.14 -43.8,-94.82 -1.7,-69.52 48.1,-126.9 115.7,-135.31 11.2,-1.39 22.4,-3.03 33.3,-4.86 196.9,-33.15 369.8,-138.91 486.7,-297.83 117.5,-159.48 164.3,-353.02 132,-544.98 -30.4,-181.2 -129.6,-342.59 -279,-454.46 -131.3,-98.28 -287.9,-150.229 -453,-150.229 -22.6,0 -45.5,1.004 -68,3.009 -20.2,1.79 -40.6,4.41 -60.5,7.8 -194.8,32.75 -365.5,139.38 -480.5,300.19 -64.3,89.85 -107.1,195.72 -123.8,306.11 -32.8,217.16 32.3,493.18 174.3,738.36 1,1.84 24.2,43.88 62,112.11 168.9,305.48 679.2,1228.12 723.1,1309.73 l 13,39.31 c 20,60.29 -5.8,126.33 -61.4,157.04 l -2.9,1.56 c -19.5,10.77 -41.5,16.45 -63.7,16.45 -39.5,0 -76.6,-17.43 -101.8,-47.87 l -24.5,-29.7 -768.3,-1403.67 c -49,-98.22 -100.7,-205.39 -142.7,-316.17"
         style="fill:#ffffff;fill-opacity:1;fill-rule:nonzero;stroke:none;stroke-width:24.29926491"
         id="path26"
         inkscape:connector-curvature="0" /><path
         d="m 10972.7,118.02 3.5,-1.915 c 20,-10.757 42.6,-16.4331 65.1,-16.4331 h 0.1 c 50.9,0 97.6,27.8631 121.7,72.7381 l 1331.5,2469.52 c 32.8,60.99 15,137.31 -41.4,177.49 l -1.8,1.38 c -19.2,15.18 -57.1,26.33 -88.6,26.33 H 10619 c -64.9,0 -119.2,-53.05 -121,-118.25 l -0.1,-4.99 c -0.3,-22.6 5.9,-45.01 18,-64.53 l 343.5,-578.02 c 21.6,-34.94 60.1,-56.13 102.5,-56.13 23.1,0 46,6.59 66.1,19.06 28.9,17.96 48.6,44.87 56.4,76.44 7.9,31.87 2.8,64.62 -14.4,92.25 l -231.1,389.2 h 1316.5 L 10916.3,304.879 c -17.4,-32.438 -21.1,-69.762 -10.5,-105.078 10.6,-35.293 34.4,-64.344 66.9,-81.781"
         style="fill:#ffffff;fill-opacity:1;fill-rule:nonzero;stroke:none;stroke-width:24.29926491"
         id="path28"
         inkscape:connector-curvature="0" /><path
         d="m 14358,103.262 h -1602.4 c -77.4,0 -140.2,62.773 -140.2,140.215 v 2.828 c 0,77.441 62.8,140.211 140.2,140.211 H 14358 c 77.5,0 140.3,-62.77 140.3,-140.211 v -2.828 c 0,-77.442 -62.8,-140.215 -140.3,-140.215"
         style="fill:#f89a0f;fill-opacity:1;fill-rule:nonzero;stroke:none;stroke-width:24.29926491"
         id="path30"
         inkscape:connector-curvature="0" /></g></g></svg>